<svg width="46" height="46" viewBox="0 0 46 46" fill="none" xmlns="http://www.w3.org/2000/svg">
<g id="water-drop 1" clip-path="url(#clip0_35_106)">
<g id="Group">
<g id="Group_2">
<path id="Vector" d="M17.9468 39.5868C13.5099 38.2072 10.5289 34.1555 10.5289 29.5046C10.5289 27.2313 11.2406 25.0654 12.5871 23.2411C12.6178 23.1995 12.6456 23.154 12.6687 23.1077C12.8912 22.6628 12.7105 22.1225 12.2655 21.9C11.8628 21.6983 11.3811 21.8278 11.1283 22.184C9.5577 24.3177 8.72748 26.8488 8.72748 29.5046C8.72748 32.1941 9.57671 34.7512 11.1833 36.8993C12.7362 38.9756 14.9482 40.5411 17.4119 41.3071C17.501 41.3348 17.5911 41.348 17.6796 41.348C18.0636 41.348 18.4195 41.1003 18.5395 40.7144C18.6872 40.2393 18.4218 39.7345 17.9468 39.5868Z" fill="#98A594"/>
<path id="Vector_2" d="M41.0359 21.0487C41.0359 19.3341 40.5015 17.7006 39.4904 16.323L33.7885 7.85853C33.6211 7.61001 33.3411 7.46103 33.0414 7.46103C32.7417 7.46103 32.4618 7.61001 32.2943 7.85853L29.8917 11.4252L22.4628 0.397502C22.2954 0.148985 22.0154 0 21.7158 0C21.4162 0 21.1362 0.148985 20.9688 0.397502L8.21631 19.328C6.08855 22.2195 4.96414 25.6492 4.96414 29.2483C4.96414 38.4852 12.4789 46 21.7158 46C30.9527 46 38.4675 38.4852 38.4675 29.2483C38.4675 28.511 38.4182 27.7723 38.3224 27.0451C39.9851 25.579 41.0359 23.4344 41.0359 21.0487ZM33.0414 9.97404L37.996 17.329C38.0059 17.3444 38.0164 17.3594 38.0273 17.3742C38.817 18.4436 39.2344 19.7142 39.2344 21.0486C39.2344 24.4634 36.4563 27.2415 33.0414 27.2415C29.6267 27.2415 26.8486 24.4634 26.8486 21.0486C26.8486 19.7142 27.266 18.4436 28.0557 17.3742C28.0661 17.36 28.0761 17.3456 28.0857 17.3308L30.6369 13.5435C30.6416 13.5366 30.6465 13.5298 30.651 13.5226L33.0414 9.97404ZM36.6659 29.2483C36.6659 37.4919 29.9592 44.1985 21.7157 44.1985C13.4721 44.1985 6.76556 37.4919 6.76556 29.2483C6.76556 26.0287 7.7735 22.9612 9.68057 20.3776C9.69147 20.363 9.70201 20.3476 9.71219 20.3318L21.7158 2.51292L28.8057 13.0375L26.5925 16.3231C25.5814 17.7006 25.0471 19.3342 25.0471 21.0487C25.0471 25.4568 28.6333 29.0431 33.0414 29.0431C34.3304 29.0431 35.5488 28.736 36.6281 28.1918C36.6527 28.5431 36.6659 28.8959 36.6659 29.2483Z" fill="#98A594"/>
<path id="Vector_3" d="M29.8654 20.8292C29.8654 20.3928 29.9543 19.9716 30.1296 19.5773C30.3318 19.1227 30.127 18.5904 29.6725 18.3884C29.2179 18.1865 28.6856 18.3909 28.4835 18.8455C28.2051 19.4717 28.0639 20.1391 28.0639 20.8292C28.0639 22.464 28.8761 23.9836 30.2363 24.8937C30.3901 24.9966 30.5642 25.0458 30.7364 25.0458C31.027 25.0458 31.3121 24.9055 31.4858 24.646C31.7624 24.2324 31.6515 23.673 31.2381 23.3964C30.3786 22.8212 29.8654 21.8616 29.8654 20.8292Z" fill="#98A594"/>
<path id="Vector_4" d="M21.2886 40.835C21.0681 40.2555 20.2454 40.0902 19.8195 40.5432C19.3125 41.0345 19.5854 41.9367 20.2807 42.0628C20.9701 42.2138 21.5709 41.4821 21.2886 40.835Z" fill="#98A594"/>
<path id="Vector_5" d="M32.5669 25.7146C33.1477 26.1169 33.9795 25.6721 33.9676 24.9661C33.9806 24.26 33.1473 23.8143 32.5669 24.2166C32.0409 24.5463 32.0388 25.386 32.5669 25.7146Z" fill="#98A594"/>
</g>
</g>
</g>
<defs>
<clipPath id="clip0_35_106">
<rect width="46" height="46" fill="white"/>
</clipPath>
</defs>
</svg>
