<svg width="63" height="63" viewBox="0 0 63 63" fill="none" xmlns="http://www.w3.org/2000/svg">
<g id="thermometer 1">
<g id="Group">
<path id="Vector" d="M36.4219 39.023V8.61328C36.4219 3.86392 32.558 0 27.8086 0C23.0592 0 19.1953 3.86392 19.1953 8.61328V39.023C16.0593 41.6052 14.2734 45.3764 14.2734 49.4648C14.2734 56.9281 20.3453 63 27.8086 63C35.2719 63 41.3438 56.9281 41.3438 49.4648C41.3438 45.3762 39.5578 41.6052 36.4219 39.023ZM27.8086 60.5391C21.7023 60.5391 16.7344 55.5712 16.7344 49.4648C16.7344 45.9485 18.3492 42.7189 21.1648 40.604C21.4743 40.3716 21.6562 40.0071 21.6562 39.6201V8.61328C21.6562 5.22088 24.4162 2.46094 27.8086 2.46094C31.201 2.46094 33.9609 5.22088 33.9609 8.61328V39.6202C33.9609 40.0072 34.1429 40.3717 34.4524 40.6041C37.2679 42.7189 38.8828 45.9485 38.8828 49.4648C38.8828 55.5712 33.9149 60.5391 27.8086 60.5391Z" fill="#98A594"/>
<path id="Vector_2" d="M40.1133 7.38281H47.4961C48.1756 7.38281 48.7266 6.83193 48.7266 6.15234C48.7266 5.47276 48.1756 4.92188 47.4961 4.92188H40.1133C39.4338 4.92188 38.8828 5.47276 38.8828 6.15234C38.8828 6.83193 39.4338 7.38281 40.1133 7.38281Z" fill="#98A594"/>
<path id="Vector_3" d="M40.1133 14.7656H45.0352C45.7146 14.7656 46.2656 14.2147 46.2656 13.5352C46.2656 12.8556 45.7146 12.3047 45.0352 12.3047H40.1133C39.4338 12.3047 38.8828 12.8556 38.8828 13.5352C38.8828 14.2147 39.4338 14.7656 40.1133 14.7656Z" fill="#98A594"/>
<path id="Vector_4" d="M47.4961 19.6875H40.1133C39.4338 19.6875 38.8828 20.2384 38.8828 20.918C38.8828 21.5976 39.4338 22.1484 40.1133 22.1484H47.4961C48.1756 22.1484 48.7266 21.5976 48.7266 20.918C48.7266 20.2384 48.1756 19.6875 47.4961 19.6875Z" fill="#98A594"/>
<path id="Vector_5" d="M40.1133 29.5312H45.0352C45.7146 29.5312 46.2656 28.9804 46.2656 28.3008C46.2656 27.6212 45.7146 27.0703 45.0352 27.0703H40.1133C39.4338 27.0703 38.8828 27.6212 38.8828 28.3008C38.8828 28.9804 39.4338 29.5312 40.1133 29.5312Z" fill="#98A594"/>
<path id="Vector_6" d="M47.4961 34.4531H40.1133C39.4338 34.4531 38.8828 35.004 38.8828 35.6836C38.8828 36.3632 39.4338 36.9141 40.1133 36.9141H47.4961C48.1756 36.9141 48.7266 36.3632 48.7266 35.6836C48.7266 35.004 48.1756 34.4531 47.4961 34.4531Z" fill="#98A594"/>
<path id="Vector_7" d="M29.0391 43.4363V8.61328C29.0391 7.93369 28.4882 7.38281 27.8086 7.38281C27.129 7.38281 26.5781 7.93369 26.5781 8.61328V43.4363C23.7733 44.008 21.6562 46.4938 21.6562 49.4648C21.6562 52.8572 24.4162 55.6172 27.8086 55.6172C31.201 55.6172 33.9609 52.8572 33.9609 49.4648C33.9609 46.4938 31.8439 44.008 29.0391 43.4363Z" fill="#98A594"/>
</g>
</g>
</svg>
